# xmcd
#
# Track frame offsets:
#	150
#	12548
#	25088
#	40408
#	52741
#	63296
#	78490
#	92824
#	111198
#	126432
#	141766
#	157329
#	172097
#	184203
#	198316
#	209830
#	224963
#
# Disc length: 3200 seconds
#
# Revision: 1
# Processed by: cddbd v1.5.2PL0 Copyright (c) Steve Scherf et al.
# Submitted via: audiograbber 1.83.01
#
DISCID=0b0c7e11
DTITLE=Tudo Novo - Volume 04
DYEAR=1900
DGENRE=Forró
TTITLE0=29 De Agosto
TTITLE1=Sorte É Ter Você (Carolinas)
TTITLE2=Meu Amor Voltou
TTITLE3=Tenha Dó De Mim (Inédita)
TTITLE4=Gordinho Gostoso
TTITLE5=Moreninha (Inédita)
TTITLE6=Tó Sou Seu
TTITLE7=Domingo De Manhã
TTITLE8=Trocaria Tudo
TTITLE9=Calma
TTITLE10=Jóia Rara (Inédita)
TTITLE11=Até Você Voltar
TTITLE12=Arrocha Das Arábias
TTITLE13=Tá Bom, Aham
TTITLE14=Oh Darcy/Chorando Se Foi
TTITLE15=Flores Murchas (Inédita)
TTITLE16=Pai (Inédita)
EXTD=
EXTT0=
EXTT1=
EXTT2=
EXTT3=
EXTT4=
EXTT5=
EXTT6=
EXTT7=
EXTT8=
EXTT9=
EXTT10=
EXTT11=
EXTT12=
EXTT13=
EXTT14=
EXTT15=
EXTT16=
PLAYORDER=
